<svg class="illustration" width="1155" height="700" viewBox="0 0 1155 700" fill="none" xmlns="http://www.w3.org/2000/svg">
<rect x="323.735" y="279.04" width="504.363" height="323.817" rx="16.3073" fill="#F5F5F5"/>
<rect x="461.182" y="389.643" width="83.8664" height="62.6743" rx="8.1161" fill="black" fill-opacity="0.04"/>
<rect x="461.182" y="456.234" width="83.8664" height="4.89643" rx="2.44822" fill="black" fill-opacity="0.04"/>
<rect x="461.182" y="465.048" width="53.2055" height="4.89643" rx="2.44822" fill="black" fill-opacity="0.04"/>
<rect x="567.181" y="389.643" width="83.8664" height="62.6743" rx="8.1161" fill="black" fill-opacity="0.04"/>
<rect x="567.18" y="456.234" width="83.8664" height="4.89643" rx="2.44822" fill="black" fill-opacity="0.04"/>
<rect x="567.18" y="465.048" width="53.2055" height="4.89643" rx="2.44822" fill="black" fill-opacity="0.04"/>
<rect x="673.178" y="389.643" width="83.8664" height="62.6743" rx="8.1161" fill="black" fill-opacity="0.04"/>
<rect x="673.178" y="456.234" width="83.8664" height="4.89643" rx="2.44822" fill="black" fill-opacity="0.04"/>
<rect x="673.178" y="465.048" width="53.2055" height="4.89643" rx="2.44822" fill="black" fill-opacity="0.04"/>
<rect x="358.679" y="389.643" width="80.3719" height="8.85438" rx="4.42719" fill="black" fill-opacity="0.03"/>
<rect x="358.679" y="408.616" width="80.3719" height="8.85438" rx="4.42719" fill="black" fill-opacity="0.03"/>
<rect x="358.679" y="427.59" width="80.3719" height="8.85438" rx="4.42719" fill="black" fill-opacity="0.03"/>
<rect x="358.679" y="446.563" width="80.3719" height="8.85438" rx="4.42719" fill="black" fill-opacity="0.03"/>
<rect x="461.182" y="331.457" width="218.984" height="22.7684" rx="3.49443" fill="black" fill-opacity="0.06"/>
<path d="M490.303 171.968C498.845 132.364 543.302 64.5723 652.794 110.233" stroke="black" stroke-width="1.16481" stroke-dasharray="11.65 11.65"/>
<path fill-rule="evenodd" clip-rule="evenodd" d="M485.461 395.232L490.513 389.91L495.554 389.613L500.003 387.035V381.311L496.874 385.033L492.733 384.743L490.766 384.371V380.422L495.554 375.492L492.191 375.492L487.761 379.343L487.409 384.371L480.936 391.943L485.461 395.232ZM476.282 397.681L470.945 404.797L467.091 403.611L462.347 406.872L462.94 412.209L465.608 408.651H469.759L471.834 410.134L470.945 413.692L467.091 416.953L470.945 417.843L475.096 413.692V408.651L481.026 400.646L476.282 397.681Z" fill="#263B73"/>
<path d="M508.558 207.887C506.452 201.267 499.927 198.297 497.05 198.297C497.05 204.37 498.488 218.244 498.488 225.149C498.488 233.78 494.173 235.698 492.255 243.37C490.337 251.042 491.296 252.481 492.255 257.755C493.214 263.03 504.243 263.509 507.599 263.509C510.956 263.509 508.558 253.919 506.161 246.726C503.763 239.534 507.599 240.013 507.599 236.657C507.599 233.3 511.915 218.436 508.558 207.887Z" fill="#1C4E5E"/>
<path fill-rule="evenodd" clip-rule="evenodd" d="M477.42 245.474C476.99 249.191 476.642 252.197 476 253C483.672 261.823 492.656 259.146 497.291 256.909L498.5 242.411C511.14 242.411 504.5 211.5 504.5 211.5C495.293 196.156 485.063 201.379 480.747 206.973C474.993 216.18 476.911 228.346 479.308 233.78C478.354 237.408 477.846 241.79 477.42 245.474ZM462.526 383.385L468.28 375.5C468.28 375.5 471.368 381.904 475 383.385C477.779 384.518 482.186 383.385 482.186 383.385C482.186 383.385 494.376 387 493 388.5C491.624 390 486 389 486 389C489.174 392.167 489.917 393.9 489.5 395.5C489.5 400.295 482.754 407.795 477 403L471 397L468.28 391.536L462.526 383.385Z" fill="#FFA3A3"/>
<path d="M437.113 259.673C424.454 265.427 411.699 326.803 413.617 338.311C415.535 349.82 461.182 392.027 461.182 392.027C467.41 385.604 468.851 382.326 470.198 376.672L437.113 333.516L457.252 280.292L523.499 279.04C523.499 279.04 521.769 273.621 521.17 270.304C520.571 266.987 497.051 253.44 497.051 253.44C484.775 256.892 476.272 252.001 473.555 249.124C466.682 250.243 449.772 253.919 437.113 259.673Z" fill="
#50e3c2"/>
<path d="M484.595 214.843C498.021 211.966 499.46 205.732 498.981 204.773C500.898 201.896 497.051 196.379 492.735 194.461C488.419 192.543 477.166 197.101 474.993 201.174C465.403 219.152 467.8 222.272 466.362 234.259C464.923 246.247 446.236 249.367 446.715 259.916C447.195 270.465 457.731 261.354 466.362 265.19C480.715 271.569 480.267 253.203 483.144 247.928C485.446 243.709 482.665 236.817 481.706 234.259C480.587 230.583 473.855 217.144 484.595 214.843Z" fill="#1C4E5E"/>
<path fill-rule="evenodd" clip-rule="evenodd" d="M679.641 171.612L678.189 163.869C678.189 163.869 672.865 164.889 670 162.559C667.135 160.229 663.96 134.056 672.865 129.023C683.029 124.667 695.612 130.475 689.321 159.997L691.257 171.612H686.901H679.641ZM614.213 279.04C614.213 279.04 594.868 284.864 596.616 288.056C597.751 290.127 602.439 289.687 602.439 289.687C602.439 289.687 587.447 304.23 594.868 302.616C595.533 302.472 596.211 302.335 596.902 302.196C603.915 300.78 612.135 299.121 619.537 286.784L614.213 279.04Z" fill="#BB7060"/>
<path d="M626.888 324.549C628.755 314.385 671.414 269.86 671.414 269.86C691.16 269.86 708.035 263.407 714.004 260.18C725.135 295.994 687.869 315.837 653.507 334.712L668.51 393.757L655.927 400.049C655.927 400.049 622.532 348.264 626.888 324.549Z" fill="#164A67"/>
<path d="M650.5 330C658.261 307.367 710.5 274.5 710.5 274.5L715.999 272.5C717.999 301.5 673.499 324 653.499 335L668.499 393L666.5 393.5C666.5 393.5 644.499 347.5 650.5 330Z" fill="black" fill-opacity="0.16"/>
<path d="M655.706 399.598L662.695 396.686C662.695 396.686 646.489 378.614 639.981 366.983C631.165 351.228 627.168 325.632 627.168 325.632C621.344 339.028 644.64 382.126 655.706 399.598Z" fill="black" fill-opacity="0.17"/>
<path d="M643.038 421.147C653.685 410.498 656.434 400.18 656.434 400.18L668.082 394.356C668.082 394.356 677.434 402.029 676.406 407.169C675.241 412.993 643.038 429.301 643.038 429.301C643.038 429.301 639.491 424.694 643.038 421.147Z" fill="black" stroke="black" stroke-width="0.967952"/>
<path d="M430.315 336.698C425.795 318.618 456.523 280.787 456.523 280.787L436.721 333.786L468.754 375.137C468.754 375.137 432.645 346.017 430.315 336.698Z" fill="black" fill-opacity="0.07"/>
<path d="M626.003 281.952C624.662 283.627 623.091 286.611 623.091 286.611L671.43 251.084L684.243 212.646C684.243 212.646 677.255 214.476 677.255 217.887C677.255 228.953 673.692 228.552 666.771 241.184C656.316 260.267 639.981 264.48 626.003 281.952Z" fill="black" fill-opacity="0.21"/>
<path d="M663.078 125.678C659.981 129.937 666.305 133.906 669.854 135.358L679.049 139.23C679.049 139.23 680.501 148.425 681.469 147.941C682.437 147.457 682.793 140.933 684.373 140.198C686.194 139.349 688.245 144.069 686.793 146.005L684.373 150.361L686.793 156.653L688.729 160.041C690.019 157.137 692.31 144.553 693.085 140.682C694.052 135.842 693.569 131.97 686.793 127.614C679.264 122.775 680.985 127.13 672.758 125.678C664.53 124.226 666.95 120.355 663.078 125.678Z" fill="#212121" stroke="black" stroke-width="0.967952"/>
<path fill-rule="evenodd" clip-rule="evenodd" d="M733.748 255.744V261.568H734.913V279.04H786.165V261.568H787.329V255.744H733.748Z" fill="#FD3B3B"/>
<path d="M734.913 279.04V261.568H786.165V279.04H734.913Z" fill="white" fill-opacity="0.13"/>
<path fill-rule="evenodd" clip-rule="evenodd" d="M762.974 265.062H760.433V268.451H757.044V270.992H760.433V274.381H762.974V270.992H766.362V268.451H762.974V265.062Z" fill="white"/>
<mask id="mask0" mask-type="alpha" maskUnits="userSpaceOnUse" x="563" y="125" width="36" height="36">
<path fill-rule="evenodd" clip-rule="evenodd" d="M579.565 125.285C578.922 125.285 578.4 125.807 578.4 126.45V129.239C576.639 129.597 575 130.29 573.552 131.249L571.578 129.275C571.124 128.821 570.386 128.821 569.931 129.275L567.677 131.53C567.222 131.984 567.222 132.722 567.677 133.177L569.651 135.15C568.692 136.598 567.999 138.237 567.641 139.998H564.851C564.208 139.998 563.687 140.52 563.687 141.163V144.351C563.687 144.994 564.208 145.516 564.851 145.516H567.641C567.999 147.277 568.692 148.916 569.65 150.364L567.677 152.337C567.222 152.792 567.222 153.53 567.677 153.985L569.931 156.239C570.386 156.694 571.123 156.694 571.578 156.239L573.552 154.265C575 155.224 576.639 155.918 578.4 156.275V159.065C578.4 159.708 578.922 160.229 579.565 160.229H582.753C583.396 160.229 583.918 159.708 583.918 159.065V156.275C585.679 155.918 587.318 155.225 588.766 154.266L590.739 156.239C591.194 156.694 591.931 156.694 592.386 156.239L594.641 153.985C595.095 153.53 595.095 152.792 594.641 152.337L592.667 150.364C593.626 148.916 594.319 147.277 594.677 145.516H597.466C598.109 145.516 598.631 144.994 598.631 144.351V141.163C598.631 140.52 598.109 139.998 597.466 139.998H594.677C594.319 138.237 593.626 136.598 592.667 135.15L594.64 133.177C595.095 132.722 595.095 131.984 594.64 131.53L592.386 129.275C591.931 128.82 591.194 128.82 590.739 129.275L588.766 131.249C587.318 130.29 585.679 129.597 583.918 129.239V126.45C583.918 125.807 583.396 125.285 582.753 125.285H579.565ZM581.159 149.194C584.714 149.194 587.596 146.312 587.596 142.757C587.596 139.202 584.714 136.32 581.159 136.32C577.604 136.32 574.722 139.202 574.722 142.757C574.722 146.312 577.604 149.194 581.159 149.194Z" fill="black"/>
</mask>
<g mask="url(#mask0)">
<rect x="552.038" y="113.637" width="326.147" height="232.962" fill="#2D3688"/>
</g>
<path d="M273 604.173L913.521 604.173" stroke="black" stroke-width="2.32962" stroke-linecap="round"/>
<circle cx="359.261" cy="302.919" r="5.24165" fill="black" fill-opacity="0.26"/>
<circle cx="380.228" cy="302.919" r="5.24165" fill="#141414" fill-opacity="0.09"/>
<circle cx="401.195" cy="302.919" r="5.24165" fill="black" fill-opacity="0.26"/>
<path fill-rule="evenodd" clip-rule="evenodd" d="M670.929 251.667L669.417 272.051C682.84 271.539 692.45 274.121 699.501 276.016C708.498 278.433 713.327 279.731 716.592 272.051C715.947 239.463 713.364 166.053 685.991 168.383C685.991 168.383 676.567 170.79 674.925 176.537C672.021 186.7 658.346 221.946 658.346 221.946L652.054 231.141L610.916 280.507L619.144 289.703L670.929 251.667ZM742.854 347C738.516 347 735 350.516 735 354.853V602.974H872V355.726C872 350.907 868.093 347 863.274 347H742.854Z" fill="

#22a6b3"/>
<rect x="765.541" y="440.369" width="75.7105" height="14.4211" rx="7.21053" fill="white" fill-opacity="0.12"/>
<rect x="744.599" y="360.089" width="120.42" height="27.9236" rx="3.28206" fill="black" fill-opacity="0.12"/>
<rect x="744.599" y="392.376" width="120.42" height="27.9236" rx="3.28206" fill="black" fill-opacity="0.12"/>
<rect x="765.541" y="460.198" width="75.7105" height="14.4211" rx="7.21053" fill="white" fill-opacity="0.12"/>
<rect x="765.541" y="480.027" width="75.7105" height="14.4211" rx="7.21053" fill="white" fill-opacity="0.12"/>
<rect x="763.796" y="507.561" width="75.7105" height="66.6974" rx="7.21053" fill="white" fill-opacity="0.09"/>
<path d="M735 353.981C735 353.981 735.068 349.099 738.49 348.309C744.162 347 754.829 347 754.829 347L792.684 602.974H735V353.981Z" fill="black" fill-opacity="0.1"/>
<path d="M302.449 549.886C302.448 518.981 302.449 440 302.449 440C302.449 440 324.426 507.992 332.667 545.079C335.886 559.562 323.052 582.852 323.052 582.852C323.052 582.852 302.449 565.136 302.449 549.886Z" fill="#2C8B74"/>
<path d="M314.124 497.69L309.316 462.664L328.546 529.282L314.124 497.69Z" fill="black" fill-opacity="0.05"/>
<path d="M302.448 499.064C304.097 508.953 318.473 555.609 325.799 577.358L323.052 582.165C310.69 573.237 304.509 560.875 302.448 551.946V499.064Z" fill="black" fill-opacity="0.18"/>
<path d="M325.799 601.395L303.135 442.06" stroke="black" stroke-width="0.686788"/>
<path d="M339.202 578.044C335.115 567.555 331.845 526.222 351.463 444.807C363.951 483.863 378.982 565.189 339.202 578.044Z" fill="#2C8B74"/>
<path d="M345.717 480.52C349.838 505.245 343.245 545.216 336.102 554.007C334.042 534.776 340.222 493.569 345.717 480.52Z" fill="black" fill-opacity="0.11"/>
<path d="M338.848 580.791C345.716 558.356 355.331 526.535 363.572 503.871C367.006 526.993 365.632 572.55 338.848 580.791Z" fill="black" fill-opacity="0.18"/>
<path d="M327.173 602.082C336.559 588.575 355.056 549.749 353.958 502.498C353.399 478.46 351.439 441.831 351.21 446.868" stroke="black" stroke-width="0.686788"/>
<path d="M287.339 567.055C293.383 585.187 311.606 592.009 327.173 601.395C327.173 601.395 315.752 573.949 303.135 560.874C288.187 545.384 255.747 532.716 255.747 532.716C255.747 532.716 281.296 548.924 287.339 567.055Z" fill="#183D45"/>
<path d="M327.173 601.395C308.63 579.189 279.098 543.018 261.241 535.463" stroke="white" stroke-width="0.412073"/>
<path d="M281.845 582.165C299.65 580.571 326.486 601.395 326.486 601.395C326.486 601.395 297.768 592.659 281.845 591.869C270.566 591.31 253 597.274 253 597.274C253 597.274 269.539 583.266 281.845 582.165Z" fill="#285964"/>
<path d="M254.373 596.587C254.373 596.587 272.476 586.009 285.278 585.599C301.657 585.074 324.425 600.708 324.425 600.708" stroke="white" stroke-width="0.274715"/>
<path d="M366.32 567.055C360.276 585.187 342.053 592.009 326.486 601.395C326.486 601.395 337.907 573.949 350.524 560.874C365.472 545.384 397.912 532.716 397.912 532.716C397.912 532.716 372.364 548.924 366.32 567.055Z" fill="#183D45"/>
<path d="M326.485 601.395C345.029 579.189 374.561 543.018 392.417 535.463" stroke="white" stroke-width="0.412073"/>
<path d="M371.814 582.165C354.01 580.571 327.173 601.395 327.173 601.395C327.173 601.395 355.892 592.659 371.814 591.869C383.094 591.31 400.659 597.274 400.659 597.274C400.659 597.274 384.12 583.266 371.814 582.165Z" fill="#285964"/>
<path d="M399.286 596.587C399.286 596.587 381.184 586.009 368.381 585.599C352.002 585.074 329.234 600.708 329.234 600.708" stroke="white" stroke-width="0.274715"/>
</svg>
