<svg width="250" height="201" viewBox="0 0 250 201" fill="none" xmlns="http://www.w3.org/2000/svg">
<rect y="1" width="250" height="200" fill="#BFFFF7"/>
<path d="M223.469 73H34.5312C30.9241 73 28 75.886 28 79.446V194.554C28 198.114 30.9241 201 34.5312 201H223.469C227.076 201 230 198.114 230 194.554V79.446C230 75.886 227.076 73 223.469 73Z" fill="#ffffff"/>
<path d="M112.806 117H86.1935C84.4298 117 83 118.449 83 120.237V138.763C83 140.551 84.4298 142 86.1935 142H112.806C114.57 142 116 140.551 116 138.763V120.237C116 118.449 114.57 117 112.806 117Z" fill="black" fill-opacity="0.04"/>
<path d="M115.037 143H83.9633C83.4313 143 83 143.448 83 144C83 144.552 83.4313 145 83.9633 145H115.037C115.569 145 116 144.552 116 144C116 143.448 115.569 143 115.037 143Z" fill="black" fill-opacity="0.04"/>
<path d="M103.988 147H84.0123C83.4532 147 83 147.448 83 148C83 148.552 83.4532 149 84.0123 149H103.988C104.547 149 105 148.552 105 148C105 147.448 104.547 147 103.988 147Z" fill="black" fill-opacity="0.04"/>
<path d="M155.806 117H129.194C127.43 117 126 118.449 126 120.237V138.763C126 140.551 127.43 142 129.194 142H155.806C157.57 142 159 140.551 159 138.763V120.237C159 118.449 157.57 117 155.806 117Z" fill="black" fill-opacity="0.04"/>
<path d="M158.037 143H126.963C126.431 143 126 143.448 126 144C126 144.552 126.431 145 126.963 145H158.037C158.569 145 159 144.552 159 144C159 143.448 158.569 143 158.037 143Z" fill="black" fill-opacity="0.04"/>
<path d="M145.08 147H126.92C126.412 147 126 147.448 126 148C126 148.552 126.412 149 126.92 149H145.08C145.588 149 146 148.552 146 148C146 147.448 145.588 147 145.08 147Z" fill="black" fill-opacity="0.04"/>
<path d="M198.71 117H171.29C169.473 117 168 118.449 168 120.237V138.763C168 140.551 169.473 142 171.29 142H198.71C200.527 142 202 140.551 202 138.763V120.237C202 118.449 200.527 117 198.71 117Z" fill="black" fill-opacity="0.04"/>
<path d="M201.007 143H168.993C168.444 143 168 143.448 168 144C168 144.552 168.444 145 168.993 145H201.007C201.556 145 202 144.552 202 144C202 143.448 201.556 143 201.007 143Z" fill="black" fill-opacity="0.04"/>
<path d="M188.034 147H168.966C168.433 147 168 147.448 168 148C168 148.552 168.433 149 168.966 149H188.034C188.567 149 189 148.552 189 148C189 147.448 188.567 147 188.034 147Z" fill="black" fill-opacity="0.04"/>
<path d="M72.2373 117H43.7627C42.7892 117 42 117.672 42 118.5C42 119.328 42.7892 120 43.7627 120H72.2373C73.2108 120 74 119.328 74 118.5C74 117.672 73.2108 117 72.2373 117Z" fill="black" fill-opacity="0.03"/>
<path d="M72.2373 124H43.7627C42.7892 124 42 124.895 42 126C42 127.105 42.7892 128 43.7627 128H72.2373C73.2108 128 74 127.105 74 126C74 124.895 73.2108 124 72.2373 124Z" fill="black" fill-opacity="0.03"/>
<path d="M72.2373 132H43.7627C42.7892 132 42 132.672 42 133.5C42 134.328 42.7892 135 43.7627 135H72.2373C73.2108 135 74 134.328 74 133.5C74 132.672 73.2108 132 72.2373 132Z" fill="black" fill-opacity="0.03"/>
<path d="M72.2373 139H43.7627C42.7892 139 42 139.895 42 141C42 142.105 42.7892 143 43.7627 143H72.2373C73.2108 143 74 142.105 74 141C74 139.895 73.2108 139 72.2373 139Z" fill="black" fill-opacity="0.03"/>
<path d="M169.596 94H84.4043C83.6287 94 83 94.6184 83 95.3813V101.619C83 102.382 83.6287 103 84.4043 103H169.596C170.371 103 171 102.382 171 101.619V95.3813C171 94.6184 170.371 94 169.596 94Z" fill="black" fill-opacity="0.06"/>
<path d="M94 31C97.4696 15.5635 115.527 -10.8599 160 6.9374" stroke="black" stroke-width="1.16481" stroke-dasharray="11.65 11.65"/>
<path fill-rule="evenodd" clip-rule="evenodd" d="M92.5935 118.924L94.4717 116.787L96.3459 116.668L98 115.633V113.336L96.8367 114.83L95.2971 114.713L94.5658 114.564V112.979L96.3459 111H95.0956L93.4486 112.546L93.3177 114.564L90.9111 117.604L92.5935 118.924ZM89.1809 119.907L87.1966 122.763L85.7638 122.287L84 123.596L84.2205 125.738L85.2124 124.31H86.7557L87.5272 124.906L87.1966 126.334L85.7638 127.643L87.1966 128L88.7399 126.334V124.31L90.9446 121.097L89.1809 119.907Z" fill="#263B73"/>
<path d="M102.453 45.6765C101.551 43.1386 98.7581 42 97.5266 42C97.5266 44.3282 98.1422 49.647 98.1422 52.2941C98.1422 55.6029 96.2951 56.3382 95.474 59.2794C94.653 62.2206 95.0635 62.7723 95.474 64.7941C95.8845 66.8164 100.606 67 102.042 67C103.479 67 102.453 63.3235 101.427 60.566C100.4 57.8088 102.042 57.9925 102.042 56.7059C102.042 55.4189 103.89 49.7206 102.453 45.6765Z" fill="#1C4E5E"/>
<path fill-rule="evenodd" clip-rule="evenodd" d="M89.7918 60.3624C89.6245 61.8261 89.4892 63.0098 89.2396 63.3261C92.2229 66.8004 95.7165 65.7462 97.5189 64.8653L97.989 59.1563C102.904 59.1563 100.322 46.9841 100.322 46.9841C96.7419 40.9419 92.7639 42.9986 91.0855 45.2014C88.848 48.827 89.5938 53.6177 90.5259 55.7575C90.155 57.1862 89.9574 58.9117 89.7918 60.3624ZM84 114.669L86.2375 111.564C86.2375 111.564 87.4383 114.086 88.8507 114.669C89.9314 115.116 91.6451 114.669 91.6451 114.669C91.6451 114.669 96.3853 116.093 95.8503 116.684C95.3152 117.274 93.1282 116.881 93.1282 116.881C94.3625 118.128 94.6514 118.81 94.4892 119.44C94.4892 121.328 91.866 124.282 89.6284 122.393L87.2952 120.031L86.2375 117.879L84 114.669Z" fill="#FFA3A3"/>
<path d="M73.4689 66.1339C68.4088 68.3887 63.3102 92.4404 64.0769 96.9501C64.8436 101.46 83.09 118 83.09 118C85.5796 115.483 86.1556 114.198 86.694 111.983L73.4689 95.071L81.5191 74.2139L108 73.7233C108 73.7233 107.308 71.5997 107.069 70.2999C106.83 69 97.4279 63.6913 97.4279 63.6913C92.5209 65.0441 89.122 63.1274 88.0359 62C85.2885 62.4385 78.5291 63.879 73.4689 66.1339Z" fill="#303131"/>
<path d="M92.075 48.3324C97.4168 47.1817 97.9893 44.6885 97.7987 44.3049C98.5615 43.1543 97.0309 40.9478 95.3136 40.1807C93.5964 39.4136 89.1192 41.2366 88.2546 42.8655C84.439 50.0557 85.3927 51.3035 84.8206 56.0977C84.248 60.8922 76.813 62.14 77.0036 66.359C77.1946 70.578 81.3866 66.9341 84.8206 68.4683C90.5312 71.0195 90.353 63.6742 91.4977 61.5645C92.4136 59.8771 91.3071 57.1207 90.9255 56.0977C90.4803 54.6275 87.8018 49.2526 92.075 48.3324Z" fill="#1C4E5E"/>
<path fill-rule="evenodd" clip-rule="evenodd" d="M170.398 31.2998L169.823 28.247C169.823 28.247 167.714 28.6492 166.579 27.7305C165.444 26.8119 164.187 16.4927 167.714 14.5083C171.741 12.7909 176.725 15.0808 174.233 26.7204L175 31.2998H173.274H170.398ZM144.48 73.6554C144.48 73.6554 136.817 75.9516 137.509 77.2101C137.959 78.0267 139.816 77.8532 139.816 77.8532C139.816 77.8532 133.877 83.587 136.817 82.9507C137.08 82.8939 137.349 82.8399 137.623 82.7851C140.401 82.2268 143.657 81.5727 146.589 76.7086L144.48 73.6554Z" fill="#BB7060"/>
<path d="M150.153 91.3115C150.883 87.3148 167.563 69.8064 167.563 69.8064C175.284 69.8064 181.882 67.2689 184.216 66C188.568 80.083 173.997 87.8857 160.561 95.3079L166.427 118.526L161.507 121C161.507 121 148.45 100.637 150.153 91.3115Z" fill="#164A67"/>
<path d="M158.42 93.8099C161.567 84.8315 182.744 71.7934 182.744 71.7934L184.974 71C185.784 82.5041 167.744 91.4298 159.636 95.7934L165.717 118.802L164.907 119C164.907 119 155.988 100.752 158.42 93.8099Z" fill="black" fill-opacity="0.16"/>
<path d="M160.507 121L163 119.858C163 119.858 157.22 112.773 154.898 108.213C151.754 102.035 150.328 92 150.328 92C148.251 97.2522 156.56 114.15 160.507 121Z" fill="black" fill-opacity="0.17"/>
<path d="M155.63 129.733C159.886 125.467 160.985 121.333 160.985 121.333L165.641 119C165.641 119 169.379 122.074 168.968 124.133C168.503 126.467 155.63 133 155.63 133C155.63 133 154.212 131.154 155.63 129.733Z" fill="black" stroke="black" stroke-width="0.967952"/>
<path d="M70.1867 95.9259C68.3273 88.8357 80.9683 74 80.9683 74L72.8221 94.7839L86 111C86 111 71.1453 99.5804 70.1867 95.9259Z" fill="black" fill-opacity="0.07"/>
<path d="M148.238 74.1733C147.668 74.83 147 76 147 76L167.552 62.0707L173 47C173 47 170.029 47.7175 170.029 49.0549C170.029 53.3936 168.514 53.2364 165.571 58.1891C161.126 65.6711 154.181 67.3229 148.238 74.1733Z" fill="black" fill-opacity="0.21"/>
<path d="M163.345 13.1012C162.055 14.8239 164.689 16.4292 166.167 17.0165L169.997 18.5826C169.997 18.5826 170.601 22.3017 171.005 22.1059C171.408 21.9102 171.556 19.2714 172.214 18.9741C172.972 18.6307 173.827 20.5398 173.222 21.3229L172.214 23.0847L173.222 25.6297L174.028 27C174.565 25.8254 175.519 20.7356 175.842 19.1699C176.245 17.2122 176.044 15.6461 173.222 13.8843C170.086 11.927 170.803 13.6885 167.377 13.1012C163.95 12.5139 164.958 10.9482 163.345 13.1012Z" fill="#212121" stroke="black" stroke-width="0.967952"/>
<path fill-rule="evenodd" clip-rule="evenodd" d="M192 64V66.25H192.457V73H212.544V66.25H213V64H192Z" fill="#FD3B3B"/>
<path d="M192 73V67H213V73H192Z" fill="white" fill-opacity="0.13"/>
<path fill-rule="evenodd" clip-rule="evenodd" d="M203.909 68H203.091V69.4547H202V70.5453H203.091V72H203.909V70.5453H205V69.4547H203.909V68Z" fill="white"/>
<mask id="mask0" mask-type="alpha" maskUnits="userSpaceOnUse" x="124" y="12" width="15" height="15">
<path fill-rule="evenodd" clip-rule="evenodd" d="M130.401 12.9238C130.144 12.9238 129.935 13.1293 129.935 13.3825V14.4806C129.229 14.6215 128.573 14.8944 127.993 15.2719L127.202 14.4947C127.02 14.316 126.725 14.316 126.543 14.4947L125.64 15.3826C125.458 15.5613 125.458 15.8519 125.64 16.031L126.431 16.8079C126.046 17.378 125.769 18.0233 125.626 18.7166H124.508C124.251 18.7166 124.042 18.9221 124.042 19.1753V20.4305C124.042 20.6836 124.251 20.8892 124.508 20.8892H125.626C125.769 21.5825 126.046 22.2278 126.43 22.7979L125.64 23.5747C125.458 23.7539 125.458 24.0444 125.64 24.2236L126.543 25.111C126.725 25.2902 127.02 25.2902 127.202 25.111L127.993 24.3338C128.573 24.7114 129.229 24.9846 129.935 25.1252V26.2237C129.935 26.4769 130.144 26.682 130.401 26.682H131.678C131.935 26.682 132.145 26.4769 132.145 26.2237V25.1252C132.85 24.9846 133.506 24.7118 134.086 24.3342L134.876 25.111C135.059 25.2902 135.354 25.2902 135.536 25.111L136.439 24.2236C136.621 24.0444 136.621 23.7539 136.439 23.5747L135.649 22.7979C136.033 22.2278 136.31 21.5825 136.454 20.8892H137.571C137.828 20.8892 138.037 20.6836 138.037 20.4305V19.1753C138.037 18.9221 137.828 18.7166 137.571 18.7166H136.454C136.31 18.0233 136.033 17.378 135.649 16.8079L136.439 16.031C136.621 15.8519 136.621 15.5613 136.439 15.3826L135.536 14.4947C135.354 14.3156 135.059 14.3156 134.876 14.4947L134.086 15.2719C133.506 14.8944 132.85 14.6215 132.145 14.4806V13.3825C132.145 13.1293 131.935 12.9238 131.678 12.9238H130.401ZM131.04 22.3373C132.463 22.3373 133.618 21.2026 133.618 19.8029C133.618 18.4032 132.463 17.2685 131.04 17.2685C129.616 17.2685 128.461 18.4032 128.461 19.8029C128.461 21.2026 129.616 22.3373 131.04 22.3373Z" fill="black"/>
</mask>
<g mask="url(#mask0)">
<path d="M250 8.33777H119.376V100.06H250V8.33777Z" fill="#2D3688"/>
</g>
</svg>
